<svg xmlns="http://www.w3.org/2000/svg" width="512" height="512" viewBox="0 0 512 512" role="img" aria-label="Qi logo">
  <defs>
    <style>
      @font-face { font-family: "QiSerif"; src: local("Georgia"); }
      .txt { font-family: QiSerif, Georgia, "Times New Roman", serif; font-weight: 700; fill: #1B2B34; }
      .stroke { stroke: #8B5A2B; stroke-width: 4; stroke-linecap: round; stroke-linejoin: round; }
    </style>
  </defs>
  
  <circle cx="256" cy="256" r="240" fill="#1B2B34"/>
  <g transform="translate(56,36) scale(0.8)">
    <ellipse cx="160.0" cy="170.0" rx="85.0" ry="110.0" fill="#C6A27C" class="stroke"/>
<ellipse cx="150.0" cy="170.0" rx="55.0" ry="70.0" fill="#F2E3CF" class="stroke"/>
<ellipse cx="175.0" cy="85.0"  rx="75.0" ry="60.0"  fill="#C6A27C" class="stroke"/>
<circle cx="120.0" cy="70.0" r="10.0" fill="#C6A27C" class="stroke"/>
<circle cx="225.0" cy="70.0" r="10.0" fill="#C6A27C" class="stroke"/>
<circle cx="175.0" cy="95.0" r="8.0" fill="#4C3A2E"/>
<path d="M 155.0 90.0 q 10.0 10.0 20.0 0" fill="none" stroke="#4C3A2E" stroke-width="3.0"/>
<path d="M 185.0 90.0 q 10.0 10.0 20.0 0" fill="none" stroke="#4C3A2E" stroke-width="3.0"/>
<path d="M 165.0 108.0 q 10.0 10.0 20.0 0" fill="none" stroke="#4C3A2E" stroke-width="3.0"/>
<path d="M 145.0 100.0 h -18.0" stroke="#4C3A2E" stroke-width="3.0" />
<path d="M 205.0 100.0 h 18.0" stroke="#4C3A2E" stroke-width="3.0" />
<circle cx="165.0" cy="150.0" r="22.0" fill="#E3B23C" class="stroke"/>
<path d="M 128.0 155.0 q 25.0 -20.0 55.0 -20.0" fill="none" stroke="#8B5A2B" stroke-width="10.0" />
<path d="M 202.0 155.0 q -25.0 -20.0 -55.0 -20.0" fill="none" stroke="#8B5A2B" stroke-width="10.0" />
<circle cx="150.0" cy="160.0" r="8.0" fill="#8B5A2B"/>
<circle cx="180.0" cy="160.0" r="8.0" fill="#8B5A2B"/>
<ellipse cx="135.0" cy="235.0" rx="28.0" ry="18.0" fill="#C6A27C" class="stroke"/>
<ellipse cx="205.0" cy="235.0" rx="28.0" ry="18.0" fill="#C6A27C" class="stroke"/>
<path d="M 60.0 250.0 C 120.0 240.0, 95.0 280.0, 155.0 290.0 "             fill="none" stroke="#1B2B34" stroke-width="14.0" stroke-linecap="round"/>
  </g>

</svg>