<svg xmlns="http://www.w3.org/2000/svg" width="720" height="360" viewBox="0 0 720 360" role="img" aria-label="Qi logo">
  <defs>
    <style>
      @font-face { font-family: "QiSerif"; src: local("Georgia"); }
      .txt { font-family: QiSerif, Georgia, "Times New Roman", serif; font-weight: 700; fill: #1B2B34; }
      .stroke { stroke: #8B5A2B; stroke-width: 4; stroke-linecap: round; stroke-linejoin: round; }
    </style>
  </defs>
  
  <!-- Text "Qi" -->
  <text x="60" y="210" font-size="180" class="txt">Qi</text>
  <!-- Otter on the right -->
  <ellipse cx="410.0" cy="210.0" rx="85.0" ry="110.0" fill="#C6A27C" class="stroke"/>
<ellipse cx="400.0" cy="210.0" rx="55.0" ry="70.0" fill="#F2E3CF" class="stroke"/>
<ellipse cx="425.0" cy="125.0"  rx="75.0" ry="60.0"  fill="#C6A27C" class="stroke"/>
<circle cx="370.0" cy="110.0" r="10.0" fill="#C6A27C" class="stroke"/>
<circle cx="475.0" cy="110.0" r="10.0" fill="#C6A27C" class="stroke"/>
<circle cx="425.0" cy="135.0" r="8.0" fill="#4C3A2E"/>
<path d="M 405.0 130.0 q 10.0 10.0 20.0 0" fill="none" stroke="#4C3A2E" stroke-width="3.0"/>
<path d="M 435.0 130.0 q 10.0 10.0 20.0 0" fill="none" stroke="#4C3A2E" stroke-width="3.0"/>
<path d="M 415.0 148.0 q 10.0 10.0 20.0 0" fill="none" stroke="#4C3A2E" stroke-width="3.0"/>
<path d="M 395.0 140.0 h -18.0" stroke="#4C3A2E" stroke-width="3.0" />
<path d="M 455.0 140.0 h 18.0" stroke="#4C3A2E" stroke-width="3.0" />
<circle cx="415.0" cy="190.0" r="22.0" fill="#E3B23C" class="stroke"/>
<path d="M 378.0 195.0 q 25.0 -20.0 55.0 -20.0" fill="none" stroke="#8B5A2B" stroke-width="10.0" />
<path d="M 452.0 195.0 q -25.0 -20.0 -55.0 -20.0" fill="none" stroke="#8B5A2B" stroke-width="10.0" />
<circle cx="400.0" cy="200.0" r="8.0" fill="#8B5A2B"/>
<circle cx="430.0" cy="200.0" r="8.0" fill="#8B5A2B"/>
<ellipse cx="385.0" cy="275.0" rx="28.0" ry="18.0" fill="#C6A27C" class="stroke"/>
<ellipse cx="455.0" cy="275.0" rx="28.0" ry="18.0" fill="#C6A27C" class="stroke"/>
<path d="M 310.0 290.0 C 370.0 280.0, 345.0 320.0, 405.0 330.0 "             fill="none" stroke="#1B2B34" stroke-width="14.0" stroke-linecap="round"/>

</svg>